<svg width="70" height="80" viewBox="0 0 70 80" fill="none" xmlns="http://www.w3.org/2000/svg">
<g clip-path="url(#clip0_589_14197)">
<path fill-rule="evenodd" clip-rule="evenodd" d="M56.3207 38.7061L44.362 45.6122V53.84V59.4205L56.3207 52.5144V38.7061ZM22.6791 21.8694L34.6378 28.7756L46.5966 21.8694L34.6378 14.9633L22.6791 21.8694ZM12.9589 45.6122V52.5184L16.2016 54.3838L24.9176 59.4165V45.6083L12.9589 38.7061V45.6122ZM6.48145 56.2532V63.7388L3.23874 61.8654L-0.00396729 59.996V39.996L1.75647e-06 20L34.6418 0L69.2836 20V60L51.9627 69.998L44.366 74.3838V66.8982L62.7982 56.2532V27.4856L37.8845 41.8694C37.8845 45.8583 37.8845 49.8472 37.8845 53.8361V78.1266L34.6418 80L31.4031 78.1306L17.3209 70.002L12.9669 67.4896V60L31.3991 70.645V41.8694L6.48542 27.4856V56.2532H6.48145ZM34.6378 36.2532L9.72415 21.8694L34.6418 7.48164L59.5555 21.8734L34.6418 36.2572L34.6378 36.2532Z" fill="white"/>
</g>
<defs>
<clipPath id="clip0_589_14197">
<rect width="69.2796" height="80" fill="white"/>
</clipPath>
</defs>
</svg>
